<svg id="Layer_1" data-name="Layer 1" xmlns="http://www.w3.org/2000/svg" viewBox="0 0 490.5 392.12"><defs><style>.cls-1,.cls-10,.cls-15,.cls-19,.cls-2,.cls-8{fill:none;}.cls-1{stroke:#a95425;}.cls-1,.cls-10,.cls-15,.cls-19,.cls-2,.cls-23,.cls-8{stroke-miterlimit:8;}.cls-2{stroke:#000001;}.cls-3,.cls-4{fill:#000001;}.cls-22,.cls-4{font-size:12px;}.cls-20,.cls-23,.cls-4{font-family:Helvetica;}.cls-5{fill:#f257ee;}.cls-6{fill:#2e5597;}.cls-7{fill:#a4a4a4;}.cls-8{stroke:#a4a4a4;}.cls-15,.cls-8{stroke-dasharray:2 1;}.cls-9{fill:#ea7923;}.cls-10{stroke:#929497;}.cls-11{fill:#ec7d2f;}.cls-12{fill:#fcbd11;}.cls-13{fill:#6aaa44;}.cls-14{fill:#5397d1;}.cls-15{stroke:red;}.cls-16{fill:#ff8bcf;}.cls-17{fill:#8345ff;}.cls-18{fill:#b600e7;}.cls-19,.cls-20,.cls-23{stroke:#000;}.cls-20,.cls-23{font-size:10px;fill:#fff;stroke-width:0.1px;}.cls-20{stroke-miterlimit:10;}.cls-21{letter-spacing:-0.05em;}.cls-22{fill:#231f20;font-family:Helvetica-Bold, Helvetica;font-weight:700;}</style></defs><path class="cls-1" d="M184.66,424.2" transform="translate(-60.75 -202.11)"/><ellipse class="cls-2" cx="137.36" cy="58.4" rx="41.25" ry="41.46"/><polygon class="cls-3" points="195.75 51.77 207.2 51.77 207.2 47.15 218.64 56.4 207.2 65.64 207.2 61.02 195.75 61.02 195.75 51.77"/><text class="cls-4" transform="translate(172.5 92.76)">NGS</text><text class="cls-4" transform="translate(159.92 104.12)">dataset</text><polygon class="cls-3" points="67.34 53.74 72.19 53.74 72.19 48.9 77.49 48.9 77.49 53.74 82.34 53.74 82.34 59.05 77.49 59.05 77.49 63.9 72.19 63.9 72.19 59.05 67.34 59.05 67.34 53.74"/><rect class="cls-3" x="140" y="82.4" width="23.57" height="2.37"/><rect class="cls-3" x="111.82" y="82.4" width="23.57" height="2.37"/><rect class="cls-3" x="111.82" y="34.4" width="23.57" height="2.37"/><rect class="cls-3" x="125.57" y="74.4" width="23.57" height="2.37"/><rect class="cls-3" x="125.57" y="58.4" width="23.57" height="2.37"/><rect class="cls-5" x="155.71" y="82.4" width="7.86" height="2.37"/><rect class="cls-3" x="139.32" y="66.4" width="23.57" height="2.37"/><rect class="cls-5" x="139.32" y="66.4" width="7.86" height="2.37"/><rect class="cls-3" x="124.57" y="90.4" width="23.57" height="2.37"/><rect class="cls-5" x="124.57" y="90.4" width="7.86" height="2.37"/><rect class="cls-3" x="140" y="34.4" width="23.57" height="2.37"/><rect class="cls-5" x="155.71" y="34.4" width="7.86" height="2.37"/><rect class="cls-3" x="125.57" y="26.4" width="23.57" height="2.37"/><polygon class="cls-5" points="133.43 26.39 125.57 28.77 125.57 26.39 133.43 26.39 133.43 26.39"/><rect class="cls-3" x="107.04" y="50.4" width="23.57" height="2.37"/><rect class="cls-5" x="107.04" y="50.4" width="7.86" height="2.37"/><rect class="cls-3" x="152.93" y="58.4" width="23.57" height="2.37"/><rect class="cls-3" x="97.65" y="58.4" width="23.57" height="2.37"/><rect class="cls-3" x="107.04" y="66.4" width="23.57" height="2.37"/><rect class="cls-3" x="125.57" y="42.4" width="23.57" height="2.37"/><rect class="cls-3" x="136.35" y="50.4" width="23.57" height="2.37"/><rect class="cls-6" x="237.57" y="72.4" width="228" height="12"/><rect class="cls-7" x="265.57" y="72.4" width="35" height="12"/><rect class="cls-5" x="310.42" y="35.9" width="14" height="1.8"/><rect class="cls-5" x="328.33" y="41.6" width="14" height="1.8"/><rect class="cls-5" x="340.24" y="47.27" width="14" height="1.8"/><rect class="cls-5" x="318.24" y="45.81" width="14" height="1.8"/><rect class="cls-5" x="338.42" y="35.9" width="14" height="1.8"/><rect class="cls-5" x="312.42" y="40.7" width="14" height="1.8"/><rect x="303.47" y="68.75" width="14" height="1.8"/><rect x="271.63" y="67.35" width="14" height="1.8"/><rect x="257.12" y="55.17" width="14" height="1.8"/><rect x="262.27" y="62.2" width="14" height="1.8"/><rect x="318.24" y="60.59" width="14" height="1.8"/><rect x="325.24" y="68.75" width="14" height="1.8"/><line class="cls-8" x1="271.37" y1="56.39" x2="310.42" y2="37.7"/><line class="cls-8" x1="285.89" y1="68.51" x2="318.24" y2="47.61"/><line class="cls-8" x1="276.52" y1="63.58" x2="312.42" y2="42.5"/><line class="cls-8" x1="325.58" y1="70.01" x2="354.24" y2="49.07"/><rect class="cls-7" x="381.57" y="72.4" width="35" height="12"/><line class="cls-8" x1="318.24" y1="60.59" x2="352.42" y2="37.7"/><ellipse class="cls-2" cx="137.03" cy="199.16" rx="41.25" ry="41.46"/><polygon class="cls-3" points="195.43 192.53 206.87 192.53 206.87 187.91 218.32 197.16 206.87 206.41 206.87 201.78 195.43 201.78 195.43 192.53"/><text class="cls-4" transform="translate(172.17 233.53)">NGS</text><text class="cls-4" transform="translate(159.59 244.88)">dataset</text><polygon class="cls-3" points="67.01 194.51 71.86 194.51 71.86 189.66 77.16 189.66 77.16 194.51 82.01 194.51 82.01 199.81 77.16 199.81 77.16 204.66 71.86 204.66 71.86 199.81 67.01 199.81 67.01 194.51"/><rect class="cls-3" x="139.67" y="223.16" width="23.57" height="2.37"/><rect class="cls-3" x="111.5" y="223.16" width="23.57" height="2.37"/><rect class="cls-3" x="111.5" y="175.16" width="23.57" height="2.37"/><rect class="cls-3" x="125.25" y="215.16" width="23.57" height="2.37"/><rect class="cls-3" x="125.25" y="199.16" width="23.57" height="2.37"/><rect class="cls-3" x="138.99" y="207.16" width="23.57" height="2.37"/><rect class="cls-3" x="124.24" y="231.16" width="23.57" height="2.37"/><rect class="cls-3" x="139.67" y="175.16" width="23.57" height="2.37"/><rect class="cls-3" x="125.25" y="167.16" width="23.57" height="2.37"/><path class="cls-9" d="M186,371.64" transform="translate(-60.75 -202.11)"/><rect class="cls-3" x="106.72" y="191.16" width="23.57" height="2.37"/><rect class="cls-3" x="152.61" y="199.16" width="23.57" height="2.37"/><rect class="cls-3" x="97.32" y="199.16" width="23.57" height="2.37"/><rect class="cls-3" x="106.72" y="207.16" width="23.57" height="2.37"/><rect class="cls-3" x="125.25" y="183.16" width="23.57" height="2.37"/><rect class="cls-3" x="136.03" y="191.16" width="23.57" height="2.37"/><rect class="cls-6" x="237.24" y="227.16" width="228" height="12"/><rect class="cls-7" x="265.24" y="227.16" width="35" height="12"/><rect x="242.24" y="222.09" width="14" height="1.8"/><path class="cls-8" d="M363.87,427.5" transform="translate(-60.75 -202.11)"/><rect class="cls-7" x="381.24" y="227.16" width="35" height="12"/><rect x="302.24" y="222.09" width="14" height="1.8"/><rect x="342.24" y="222.09" width="14" height="1.8"/><rect x="322.24" y="222.09" width="14" height="1.8"/><rect x="362.24" y="222.09" width="14" height="1.8"/><rect x="382.24" y="222.09" width="14" height="1.8"/><rect x="401.24" y="222.09" width="14" height="1.8"/><rect x="422.24" y="222.09" width="14" height="1.8"/><rect x="442.24" y="222.09" width="14" height="1.8"/><rect x="238.42" y="217.09" width="14" height="1.8"/><rect x="298.42" y="217.09" width="14" height="1.8"/><rect x="338.42" y="217.09" width="14" height="1.8"/><rect x="318.42" y="217.09" width="14" height="1.8"/><rect x="358.42" y="217.09" width="14" height="1.8"/><rect x="378.42" y="217.09" width="14" height="1.8"/><rect x="397.42" y="217.09" width="14" height="1.8"/><rect x="418.42" y="217.09" width="14" height="1.8"/><rect x="438.42" y="217.09" width="14" height="1.8"/><rect x="234.33" y="212.58" width="14" height="1.8"/><rect x="254.33" y="212.58" width="14" height="1.8"/><rect x="334.33" y="212.58" width="14" height="1.8"/><rect x="314.33" y="212.58" width="14" height="1.8"/><rect x="354.33" y="212.58" width="14" height="1.8"/><rect x="374.33" y="212.58" width="14" height="1.8"/><rect x="393.33" y="212.58" width="14" height="1.8"/><rect x="414.33" y="212.58" width="14" height="1.8"/><rect x="434.33" y="212.58" width="14" height="1.8"/><rect x="250.42" y="208.07" width="14" height="1.8"/><rect x="330.42" y="208.07" width="14" height="1.8"/><rect x="310.42" y="208.07" width="14" height="1.8"/><rect x="350.42" y="208.07" width="14" height="1.8"/><rect x="370.42" y="208.07" width="14" height="1.8"/><rect x="389.42" y="208.07" width="14" height="1.8"/><rect x="410.42" y="208.07" width="14" height="1.8"/><rect x="430.42" y="208.07" width="14" height="1.8"/><rect x="247.24" y="203.57" width="14" height="1.8"/><rect x="307.24" y="203.57" width="14" height="1.8"/><rect x="347.24" y="203.57" width="14" height="1.8"/><rect x="327.24" y="203.57" width="14" height="1.8"/><rect x="367.24" y="203.57" width="14" height="1.8"/><rect x="387.24" y="203.57" width="14" height="1.8"/><rect x="406.24" y="203.57" width="14" height="1.8"/><rect x="427.24" y="203.57" width="14" height="1.8"/><rect x="447.24" y="203.57" width="14" height="1.8"/><rect x="242.24" y="199.24" width="14" height="1.8"/><rect x="302.24" y="199.24" width="14" height="1.8"/><rect x="342.24" y="199.24" width="14" height="1.8"/><rect x="322.24" y="199.24" width="14" height="1.8"/><rect x="362.24" y="199.24" width="14" height="1.8"/><rect x="382.24" y="199.24" width="14" height="1.8"/><rect x="401.24" y="199.24" width="14" height="1.8"/><rect x="422.24" y="199.24" width="14" height="1.8"/><rect x="442.24" y="199.24" width="14" height="1.8"/><ellipse class="cls-2" cx="137.12" cy="340.63" rx="41.25" ry="41.46"/><polygon class="cls-3" points="195.52 334 206.96 334 206.96 329.38 218.41 338.63 206.96 347.88 206.96 343.25 195.52 343.25 195.52 334"/><text class="cls-4" transform="translate(172.26 375)">NGS</text><text class="cls-4" transform="translate(159.68 386.35)">dataset</text><polygon class="cls-3" points="67.1 335.98 71.95 335.98 71.95 331.13 77.25 331.13 77.25 335.98 82.1 335.98 82.1 341.28 77.25 341.28 77.25 346.13 71.95 346.13 71.95 341.28 67.1 341.28 67.1 335.98"/><rect class="cls-3" x="139.76" y="364.63" width="23.57" height="2.37"/><rect class="cls-3" x="111.59" y="364.63" width="23.57" height="2.37"/><rect class="cls-3" x="111.59" y="316.63" width="23.57" height="2.37"/><rect class="cls-3" x="125.33" y="356.63" width="23.57" height="2.37"/><rect class="cls-3" x="125.33" y="340.63" width="23.57" height="2.37"/><rect class="cls-3" x="139.08" y="348.63" width="23.57" height="2.37"/><rect class="cls-3" x="124.33" y="372.63" width="23.57" height="2.37"/><rect class="cls-3" x="139.76" y="316.63" width="23.57" height="2.37"/><rect class="cls-9" x="158.4" y="316.63" width="2" height="2.37"/><rect class="cls-3" x="125.33" y="308.63" width="23.57" height="2.37"/><rect class="cls-3" x="106.81" y="332.63" width="23.57" height="2.37"/><rect class="cls-3" x="152.7" y="340.63" width="23.57" height="2.37"/><rect class="cls-3" x="97.41" y="340.63" width="23.57" height="2.37"/><rect class="cls-3" x="106.81" y="348.63" width="23.57" height="2.37"/><rect class="cls-3" x="125.33" y="324.63" width="23.57" height="2.37"/><rect class="cls-3" x="136.11" y="332.63" width="23.57" height="2.37"/><rect class="cls-6" x="237.33" y="378.63" width="228" height="12"/><rect x="241.91" y="372.4" width="14" height="1.8"/><path class="cls-8" d="M363.54,577.8" transform="translate(-60.75 -202.11)"/><rect x="301.91" y="372.4" width="14" height="1.8"/><rect x="341.91" y="372.4" width="14" height="1.8"/><rect x="321.91" y="372.4" width="14" height="1.8"/><rect x="361.91" y="372.4" width="14" height="1.8"/><rect x="381.91" y="372.4" width="14" height="1.8"/><rect x="400.91" y="372.4" width="14" height="1.8"/><rect x="421.91" y="372.4" width="14" height="1.8"/><rect x="441.91" y="372.4" width="14" height="1.8"/><rect x="238.08" y="367.4" width="14" height="1.8"/><rect x="298.08" y="367.4" width="14" height="1.8"/><rect x="338.08" y="367.4" width="14" height="1.8"/><rect x="318.08" y="367.4" width="14" height="1.8"/><rect x="358.08" y="367.4" width="14" height="1.8"/><rect x="378.08" y="367.4" width="14" height="1.8"/><rect x="397.08" y="367.4" width="14" height="1.8"/><rect x="418.08" y="367.4" width="14" height="1.8"/><rect x="438.08" y="367.4" width="14" height="1.8"/><rect x="234" y="362.89" width="14" height="1.8"/><rect x="254" y="362.89" width="14" height="1.8"/><rect x="334" y="362.89" width="14" height="1.8"/><rect x="314" y="362.89" width="14" height="1.8"/><rect x="354" y="362.89" width="14" height="1.8"/><rect x="374" y="362.89" width="14" height="1.8"/><rect x="393" y="362.89" width="14" height="1.8"/><rect x="414" y="362.89" width="14" height="1.8"/><rect x="434" y="362.89" width="14" height="1.8"/><rect x="250.08" y="358.38" width="14" height="1.8"/><rect x="330.08" y="358.38" width="14" height="1.8"/><rect x="310.08" y="358.38" width="14" height="1.8"/><rect x="350.08" y="358.38" width="14" height="1.8"/><rect x="370.08" y="358.38" width="14" height="1.8"/><rect x="389.08" y="358.38" width="14" height="1.8"/><rect x="410.08" y="358.38" width="14" height="1.8"/><rect x="430.08" y="358.38" width="14" height="1.8"/><rect x="246.91" y="353.88" width="14" height="1.8"/><rect x="306.91" y="353.88" width="14" height="1.8"/><rect x="346.91" y="353.88" width="14" height="1.8"/><rect x="326.91" y="353.88" width="14" height="1.8"/><rect x="366.91" y="353.88" width="14" height="1.8"/><rect x="386.91" y="353.88" width="14" height="1.8"/><rect x="405.91" y="353.88" width="14" height="1.8"/><rect x="426.91" y="353.88" width="14" height="1.8"/><rect x="446.91" y="353.88" width="14" height="1.8"/><rect x="241.91" y="349.55" width="14" height="1.8"/><rect x="301.91" y="349.55" width="14" height="1.8"/><rect x="341.91" y="349.55" width="14" height="1.8"/><rect x="321.91" y="349.55" width="14" height="1.8"/><rect x="361.91" y="349.55" width="14" height="1.8"/><rect x="381.91" y="349.55" width="14" height="1.8"/><rect x="400.91" y="349.55" width="14" height="1.8"/><rect x="421.91" y="349.55" width="14" height="1.8"/><rect x="441.91" y="349.55" width="14" height="1.8"/><rect x="261.91" y="349.55" width="14" height="1.8"/><rect x="281.91" y="349.55" width="14" height="1.8"/><rect x="266.91" y="353.88" width="14" height="1.8"/><rect x="286.91" y="353.88" width="14" height="1.8"/><rect x="270.08" y="358.38" width="14" height="1.8"/><rect x="290.08" y="358.38" width="14" height="1.8"/><rect x="274" y="362.89" width="14" height="1.8"/><rect x="294" y="362.89" width="14" height="1.8"/><rect x="258.08" y="367.4" width="14" height="1.8"/><rect x="261.91" y="372.4" width="14" height="1.8"/><rect x="278.08" y="367.4" width="14" height="1.8"/><rect x="281.91" y="372.4" width="14" height="1.8"/><rect class="cls-9" x="139.08" y="308.63" width="2" height="2.37"/><rect class="cls-9" x="158.4" y="340.63" width="2" height="2.37"/><rect class="cls-9" x="111.91" y="348.63" width="2" height="2.37"/><rect class="cls-9" x="119.81" y="332.63" width="2" height="2.37"/><rect class="cls-9" x="125.66" y="372.63" width="2" height="2.37"/><rect class="cls-9" x="142.34" y="356.63" width="2" height="2.37"/><line class="cls-10" x1="0.33" y1="117.08" x2="490.5" y2="117.08"/><line class="cls-10" y1="263.13" x2="490.17" y2="263.13"/><polygon class="cls-11" points="424.91 341.04 426.91 341.04 426.91 336.04 430.91 336.04 430.91 341.04 432.91 341.04 428.91 346.04 424.91 341.04"/><polygon class="cls-11" points="267.08 341.04 269.08 341.04 269.08 336.04 273.08 336.04 273.08 341.04 275.08 341.04 271.08 346.04 267.08 341.04"/><polygon class="cls-11" points="318.91 341.04 320.91 341.04 320.91 336.04 324.91 336.04 324.91 341.04 326.91 341.04 322.91 346.04 318.91 341.04"/><polygon class="cls-11" points="407.08 341.04 409.08 341.04 409.08 336.04 413.08 336.04 413.08 341.04 415.08 341.04 411.08 346.04 407.08 341.04"/><polygon class="cls-12" points="442.08 331.04 444.08 331.04 444.08 326.04 448.08 326.04 448.08 331.04 450.08 331.04 446.08 336.04 442.08 331.04"/><polygon class="cls-12" points="332.08 331.04 334.08 331.04 334.08 326.04 338.08 326.04 338.08 331.04 340.08 331.04 336.08 336.04 332.08 331.04"/><polygon class="cls-13" points="422.23 321.04 424.23 321.04 424.23 316.04 428.23 316.04 428.23 321.04 430.23 321.04 426.23 326.04 422.23 321.04"/><polygon class="cls-13" points="255.41 321.04 257.41 321.04 257.41 316.04 261.41 316.04 261.41 321.04 263.41 321.04 259.41 326.04 255.41 321.04"/><polygon class="cls-13" points="279.23 321.04 281.23 321.04 281.23 316.04 285.23 316.04 285.23 321.04 287.23 321.04 283.23 326.04 279.23 321.04"/><polygon class="cls-13" points="376.41 321.04 378.41 321.04 378.41 316.04 382.41 316.04 382.41 321.04 384.41 321.04 380.41 326.04 376.41 321.04"/><polygon class="cls-14" points="439.41 311.04 441.41 311.04 441.41 306.04 445.41 306.04 445.41 311.04 447.41 311.04 443.41 316.04 439.41 311.04"/><polygon class="cls-14" points="329.41 311.04 331.41 311.04 331.41 306.04 335.41 306.04 335.41 311.04 337.41 311.04 333.41 316.04 329.41 311.04"/><polygon class="cls-13" points="386.91 321.04 388.91 321.04 388.91 316.04 392.91 316.04 392.91 321.04 394.91 321.04 390.91 326.04 386.91 321.04"/><polygon class="cls-13" points="291.38 321.04 293.38 321.04 293.38 316.04 297.38 316.04 297.38 321.04 299.38 321.04 295.38 326.04 291.38 321.04"/><polygon class="cls-14" points="306.08 311.04 308.08 311.04 308.08 306.04 312.08 306.04 312.08 311.04 314.08 311.04 310.08 316.04 306.08 311.04"/><rect class="cls-9" x="321.91" y="349.55" width="2" height="1.8"/><rect class="cls-9" x="321.91" y="358.38" width="2" height="1.8"/><rect class="cls-9" x="321.91" y="362.89" width="2" height="1.8"/><rect class="cls-9" x="321.91" y="367.4" width="2" height="1.8"/><rect class="cls-9" x="321.91" y="372.4" width="2" height="1.8"/><rect class="cls-9" x="270.08" y="349.55" width="2" height="1.8"/><rect class="cls-9" x="270.08" y="353.88" width="2" height="1.8"/><rect class="cls-9" x="270.08" y="358.38" width="2" height="1.8"/><rect class="cls-9" x="270.08" y="367.4" width="2" height="1.8"/><rect class="cls-9" x="270.08" y="372.4" width="2" height="1.8"/><rect class="cls-9" x="410.08" y="349.55" width="2" height="1.8"/><rect class="cls-9" x="427.91" y="349.55" width="2" height="1.8"/><rect class="cls-9" x="427.91" y="353.88" width="2" height="1.8"/><rect class="cls-9" x="410.08" y="353.88" width="2" height="1.8"/><rect class="cls-9" x="410.08" y="358.38" width="2" height="1.8"/><rect class="cls-9" x="410.08" y="367.4" width="1" height="1.8"/><rect class="cls-9" x="410.08" y="372.4" width="2" height="1.8"/><rect class="cls-9" x="427.91" y="367.4" width="2" height="1.8"/><rect class="cls-9" x="427.91" y="372.4" width="2" height="1.8"/><line class="cls-15" x1="265.57" y1="239.38" x2="265.57" y2="171.36"/><line class="cls-15" x1="300.24" y1="239.63" x2="300.24" y2="171.61"/><line class="cls-15" x1="381.57" y1="239.36" x2="381.57" y2="171.33"/><line class="cls-15" x1="416.57" y1="239.36" x2="416.57" y2="171.33"/><text class="cls-4" transform="translate(18.89 99.86)">tagDB</text><text class="cls-4" transform="translate(19.56 382.09)">vcfDB</text><text class="cls-4" transform="translate(15.56 240.62)">mapDB</text><rect class="cls-16" x="261.14" y="20.78" width="44.01" height="12"/><rect class="cls-5" x="309.41" y="20.78" width="44.01" height="12"/><rect class="cls-17" x="406.24" y="20.78" width="44.01" height="12"/><rect class="cls-18" x="358.24" y="20.78" width="44.01" height="12"/><line class="cls-8" x1="303.47" y1="68.75" x2="342.33" y2="41.6"/><path class="cls-19" d="M72.32,234.93a8.22,8.22,0,0,1,8-8.43h32a8.23,8.23,0,0,1,8,8.43v47.15a8.22,8.22,0,0,1-8,8.42h-32a8.22,8.22,0,0,1-8-8.42Z" transform="translate(-60.75 -202.11)"/><rect class="cls-17" x="17.57" y="71.3" width="36" height="12"/><rect class="cls-16" x="17.57" y="29.3" width="36" height="12"/><rect class="cls-5" x="17.57" y="43.3" width="36" height="12"/><rect class="cls-18" x="17.57" y="57.3" width="36" height="12"/><text class="cls-20" transform="translate(25.34 38.68)">tag<tspan class="cls-21" x="13.9" y="0">A</tspan></text><text class="cls-20" transform="translate(25.28 52.69)">tagB</text><text class="cls-20" transform="translate(25 66.69)">tagC</text><text class="cls-20" transform="translate(25 80.69)">tagD</text><text class="cls-22" transform="translate(219.31 10.32) scale(0.93 1)">EpitopeID</text><text class="cls-22" transform="translate(217.76 151.7) scale(0.93 1)">DeletionID</text><text class="cls-22" transform="translate(223.94 292.76) scale(0.93 1)">StrainID</text><path class="cls-2" d="M72.32,375.87a8.23,8.23,0,0,1,8-8.43h32a8.23,8.23,0,0,1,8,8.43V423a8.22,8.22,0,0,1-8,8.42h-32a8.22,8.22,0,0,1-8-8.42Z" transform="translate(-60.75 -202.11)"/><rect class="cls-7" x="17.57" y="170.47" width="36" height="12"/><rect class="cls-7" x="17.57" y="184.48" width="36" height="12"/><rect class="cls-7" x="17.57" y="198.5" width="36" height="12"/><rect class="cls-7" x="17.57" y="212.51" width="36" height="12"/><text class="cls-23" transform="translate(21.89 179.36)">gene<tspan class="cls-21" x="22.25" y="0">A</tspan></text><text class="cls-23" transform="translate(21.28 193.37)">geneB</text><text class="cls-23" transform="translate(20.73 207.38)">geneC</text><text class="cls-23" transform="translate(20.73 221.4)">geneD</text><path class="cls-2" d="M72.32,517.16a8.22,8.22,0,0,1,8-8.43h32a8.23,8.23,0,0,1,8,8.43v47.15a8.22,8.22,0,0,1-8,8.42h-32a8.22,8.22,0,0,1-8-8.42Z" transform="translate(-60.75 -202.11)"/><rect class="cls-9" x="17.57" y="353.63" width="36" height="12"/><rect class="cls-14" x="17.57" y="311.63" width="36" height="12"/><rect class="cls-13" x="17.57" y="325.63" width="36" height="12"/><rect class="cls-12" x="17.57" y="339.63" width="36" height="12"/><text class="cls-23" transform="translate(20.78 321.24)">strain<tspan class="cls-21" x="24.45" y="0">A</tspan></text><text class="cls-23" transform="translate(20.17 335.25)">strainB</text><text class="cls-23" transform="translate(19.62 349.26)">strainC</text><text class="cls-23" transform="translate(19.62 363.28)">strainD</text><text class="cls-23" transform="translate(268.34 235.82)">gene<tspan class="cls-21" x="22.25" y="0">A</tspan></text><text class="cls-23" transform="translate(384.28 235.82)">geneB</text><text class="cls-23" transform="translate(268.67 81.49)">gene<tspan class="cls-21" x="22.25" y="0">A</tspan></text><text class="cls-23" transform="translate(384.61 81.49)">geneB</text><text class="cls-20" transform="translate(272.92 29.67)">tag<tspan class="cls-21" x="13.9" y="0">A</tspan></text><text class="cls-20" transform="translate(321.13 29.67)">tagB</text><text class="cls-20" transform="translate(369.68 29.67)">tagC</text><text class="cls-20" transform="translate(417.68 29.67)">tagD</text></svg>