<svg id="Layer_1" data-name="Layer 1" xmlns="http://www.w3.org/2000/svg" viewBox="0 0 490.5 411.12"><defs><style>.cls-1,.cls-10,.cls-15,.cls-19,.cls-2,.cls-8{fill:none;}.cls-1{stroke:#a95425;}.cls-1,.cls-10,.cls-15,.cls-19,.cls-2,.cls-24,.cls-8{stroke-miterlimit:8;}.cls-2{stroke:#000001;}.cls-3,.cls-4{fill:#000001;}.cls-22,.cls-23,.cls-4{font-size:12px;}.cls-20,.cls-24,.cls-4{font-family:Helvetica;}.cls-5{fill:#f257ee;}.cls-6{fill:#2e5597;}.cls-7{fill:#a4a4a4;}.cls-8{stroke:#a4a4a4;}.cls-15,.cls-8{stroke-dasharray:2 1;}.cls-9{fill:#ea7923;}.cls-10{stroke:#929497;}.cls-11{fill:#ec7d2f;}.cls-12{fill:#fcbd11;}.cls-13{fill:#6aaa44;}.cls-14{fill:#5397d1;}.cls-15{stroke:red;}.cls-16{fill:#ff8bcf;}.cls-17{fill:#8345ff;}.cls-18{fill:#b600e7;}.cls-19,.cls-20,.cls-24{stroke:#000;}.cls-20,.cls-24{font-size:10px;fill:#fff;stroke-width:0.1px;}.cls-20{stroke-miterlimit:10;}.cls-21{letter-spacing:-0.05em;}.cls-22{fill:#231f20;}.cls-22,.cls-23{font-family:Helvetica-Bold, Helvetica;font-weight:700;}</style></defs><path class="cls-1" d="M184.66,424.2" transform="translate(-60.75 -183.11)"/><ellipse class="cls-2" cx="137.36" cy="77.4" rx="41.25" ry="41.46"/><polygon class="cls-3" points="195.75 70.77 207.2 70.77 207.2 66.14 218.64 75.39 207.2 84.64 207.2 80.02 195.75 80.02 195.75 70.77"/><text class="cls-4" transform="translate(172.5 111.76)">NGS</text><text class="cls-4" transform="translate(159.92 123.12)">dataset</text><polygon class="cls-3" points="67.34 72.74 72.19 72.74 72.19 67.89 77.49 67.89 77.49 72.74 82.34 72.74 82.34 78.05 77.49 78.05 77.49 82.89 72.19 82.89 72.19 78.05 67.34 78.05 67.34 72.74"/><rect class="cls-3" x="140" y="101.4" width="23.57" height="2.37"/><rect class="cls-3" x="111.82" y="101.4" width="23.57" height="2.37"/><rect class="cls-3" x="111.82" y="53.4" width="23.57" height="2.37"/><rect class="cls-3" x="125.57" y="93.4" width="23.57" height="2.37"/><rect class="cls-3" x="125.57" y="77.4" width="23.57" height="2.37"/><rect class="cls-5" x="155.71" y="101.4" width="7.86" height="2.37"/><rect class="cls-3" x="139.32" y="85.4" width="23.57" height="2.37"/><rect class="cls-5" x="139.32" y="85.4" width="7.86" height="2.37"/><rect class="cls-3" x="124.57" y="109.4" width="23.57" height="2.37"/><rect class="cls-5" x="124.57" y="109.4" width="7.86" height="2.37"/><rect class="cls-3" x="140" y="53.4" width="23.57" height="2.37"/><rect class="cls-5" x="155.71" y="53.4" width="7.86" height="2.37"/><rect class="cls-3" x="125.57" y="45.4" width="23.57" height="2.37"/><polygon class="cls-5" points="133.43 45.4 125.57 47.77 125.57 45.4 133.43 45.4 133.43 45.4"/><rect class="cls-3" x="107.04" y="69.4" width="23.57" height="2.37"/><rect class="cls-5" x="107.04" y="69.4" width="7.86" height="2.37"/><rect class="cls-3" x="152.93" y="77.4" width="23.57" height="2.37"/><rect class="cls-3" x="97.65" y="77.4" width="23.57" height="2.37"/><rect class="cls-3" x="107.04" y="85.4" width="23.57" height="2.37"/><rect class="cls-3" x="125.57" y="61.4" width="23.57" height="2.37"/><rect class="cls-3" x="136.35" y="69.4" width="23.57" height="2.37"/><rect class="cls-6" x="237.57" y="91.4" width="228" height="12"/><rect class="cls-7" x="265.57" y="91.4" width="35" height="12"/><rect class="cls-5" x="310.42" y="54.9" width="14" height="1.8"/><rect class="cls-5" x="328.33" y="60.6" width="14" height="1.8"/><rect class="cls-5" x="340.24" y="66.27" width="14" height="1.8"/><rect class="cls-5" x="318.24" y="64.81" width="14" height="1.8"/><rect class="cls-5" x="338.42" y="54.9" width="14" height="1.8"/><rect class="cls-5" x="312.42" y="59.7" width="14" height="1.8"/><rect x="303.47" y="87.75" width="14" height="1.8"/><rect x="271.63" y="86.35" width="14" height="1.8"/><rect x="257.12" y="74.17" width="14" height="1.8"/><rect x="262.27" y="81.2" width="14" height="1.8"/><rect x="318.24" y="79.59" width="14" height="1.8"/><rect x="325.24" y="87.75" width="14" height="1.8"/><line class="cls-8" x1="271.37" y1="75.39" x2="310.42" y2="56.7"/><line class="cls-8" x1="285.89" y1="87.51" x2="318.24" y2="66.61"/><line class="cls-8" x1="276.52" y1="82.58" x2="312.42" y2="61.5"/><line class="cls-8" x1="325.58" y1="89.01" x2="354.24" y2="68.07"/><rect class="cls-7" x="381.57" y="91.4" width="35" height="12"/><line class="cls-8" x1="318.24" y1="79.59" x2="352.42" y2="56.7"/><ellipse class="cls-2" cx="137.03" cy="218.16" rx="41.25" ry="41.46"/><polygon class="cls-3" points="195.43 211.53 206.87 211.53 206.87 206.91 218.32 216.16 206.87 225.41 206.87 220.78 195.43 220.78 195.43 211.53"/><text class="cls-4" transform="translate(172.17 252.53)">NGS</text><text class="cls-4" transform="translate(159.59 263.88)">dataset</text><polygon class="cls-3" points="67.01 213.51 71.86 213.51 71.86 208.66 77.16 208.66 77.16 213.51 82.01 213.51 82.01 218.81 77.16 218.81 77.16 223.66 71.86 223.66 71.86 218.81 67.01 218.81 67.01 213.51"/><rect class="cls-3" x="139.67" y="242.16" width="23.57" height="2.37"/><rect class="cls-3" x="111.5" y="242.16" width="23.57" height="2.37"/><rect class="cls-3" x="111.5" y="194.16" width="23.57" height="2.37"/><rect class="cls-3" x="125.25" y="234.16" width="23.57" height="2.37"/><rect class="cls-3" x="125.25" y="218.16" width="23.57" height="2.37"/><rect class="cls-3" x="138.99" y="226.16" width="23.57" height="2.37"/><rect class="cls-3" x="124.24" y="250.16" width="23.57" height="2.37"/><rect class="cls-3" x="139.67" y="194.16" width="23.57" height="2.37"/><rect class="cls-3" x="125.25" y="186.16" width="23.57" height="2.37"/><path class="cls-9" d="M186,371.64" transform="translate(-60.75 -183.11)"/><rect class="cls-3" x="106.72" y="210.16" width="23.57" height="2.37"/><rect class="cls-3" x="152.61" y="218.16" width="23.57" height="2.37"/><rect class="cls-3" x="97.32" y="218.16" width="23.57" height="2.37"/><rect class="cls-3" x="106.72" y="226.16" width="23.57" height="2.37"/><rect class="cls-3" x="125.25" y="202.16" width="23.57" height="2.37"/><rect class="cls-3" x="136.03" y="210.16" width="23.57" height="2.37"/><rect class="cls-6" x="237.24" y="246.16" width="228" height="12"/><rect class="cls-7" x="265.24" y="246.16" width="35" height="12"/><rect x="242.24" y="241.09" width="14" height="1.8"/><path class="cls-8" d="M363.87,427.5" transform="translate(-60.75 -183.11)"/><rect class="cls-7" x="381.24" y="246.16" width="35" height="12"/><rect x="302.24" y="241.09" width="14" height="1.8"/><rect x="342.24" y="241.09" width="14" height="1.8"/><rect x="322.24" y="241.09" width="14" height="1.8"/><rect x="362.24" y="241.09" width="14" height="1.8"/><rect x="382.24" y="241.09" width="14" height="1.8"/><rect x="401.24" y="241.09" width="14" height="1.8"/><rect x="422.24" y="241.09" width="14" height="1.8"/><rect x="442.24" y="241.09" width="14" height="1.8"/><rect x="238.42" y="236.09" width="14" height="1.8"/><rect x="298.42" y="236.09" width="14" height="1.8"/><rect x="338.42" y="236.09" width="14" height="1.8"/><rect x="318.42" y="236.09" width="14" height="1.8"/><rect x="358.42" y="236.09" width="14" height="1.8"/><rect x="378.42" y="236.09" width="14" height="1.8"/><rect x="397.42" y="236.09" width="14" height="1.8"/><rect x="418.42" y="236.09" width="14" height="1.8"/><rect x="438.42" y="236.09" width="14" height="1.8"/><rect x="234.33" y="231.58" width="14" height="1.8"/><rect x="254.33" y="231.58" width="14" height="1.8"/><rect x="334.33" y="231.58" width="14" height="1.8"/><rect x="314.33" y="231.58" width="14" height="1.8"/><rect x="354.33" y="231.58" width="14" height="1.8"/><rect x="374.33" y="231.58" width="14" height="1.8"/><rect x="393.33" y="231.58" width="14" height="1.8"/><rect x="414.33" y="231.58" width="14" height="1.8"/><rect x="434.33" y="231.58" width="14" height="1.8"/><rect x="250.42" y="227.07" width="14" height="1.8"/><rect x="330.42" y="227.07" width="14" height="1.8"/><rect x="310.42" y="227.07" width="14" height="1.8"/><rect x="350.42" y="227.07" width="14" height="1.8"/><rect x="370.42" y="227.07" width="14" height="1.8"/><rect x="389.42" y="227.07" width="14" height="1.8"/><rect x="410.42" y="227.07" width="14" height="1.8"/><rect x="430.42" y="227.07" width="14" height="1.8"/><rect x="247.24" y="222.57" width="14" height="1.8"/><rect x="307.24" y="222.57" width="14" height="1.8"/><rect x="347.24" y="222.57" width="14" height="1.8"/><rect x="327.24" y="222.57" width="14" height="1.8"/><rect x="367.24" y="222.57" width="14" height="1.8"/><rect x="387.24" y="222.57" width="14" height="1.8"/><rect x="406.24" y="222.57" width="14" height="1.8"/><rect x="427.24" y="222.57" width="14" height="1.8"/><rect x="447.24" y="222.57" width="14" height="1.8"/><rect x="242.24" y="218.24" width="14" height="1.8"/><rect x="302.24" y="218.24" width="14" height="1.8"/><rect x="342.24" y="218.24" width="14" height="1.8"/><rect x="322.24" y="218.24" width="14" height="1.8"/><rect x="362.24" y="218.24" width="14" height="1.8"/><rect x="382.24" y="218.24" width="14" height="1.8"/><rect x="401.24" y="218.24" width="14" height="1.8"/><rect x="422.24" y="218.24" width="14" height="1.8"/><rect x="442.24" y="218.24" width="14" height="1.8"/><ellipse class="cls-2" cx="137.12" cy="359.63" rx="41.25" ry="41.46"/><polygon class="cls-3" points="195.52 353 206.96 353 206.96 348.38 218.41 357.63 206.96 366.88 206.96 362.25 195.52 362.25 195.52 353"/><text class="cls-4" transform="translate(172.26 394)">NGS</text><text class="cls-4" transform="translate(159.68 405.35)">dataset</text><polygon class="cls-3" points="67.1 354.98 71.95 354.98 71.95 350.13 77.25 350.13 77.25 354.98 82.1 354.98 82.1 360.28 77.25 360.28 77.25 365.13 71.95 365.13 71.95 360.28 67.1 360.28 67.1 354.98"/><rect class="cls-3" x="139.76" y="383.63" width="23.57" height="2.37"/><rect class="cls-3" x="111.59" y="383.63" width="23.57" height="2.37"/><rect class="cls-3" x="111.59" y="335.63" width="23.57" height="2.37"/><rect class="cls-3" x="125.33" y="375.63" width="23.57" height="2.37"/><rect class="cls-3" x="125.33" y="359.63" width="23.57" height="2.37"/><rect class="cls-3" x="139.08" y="367.63" width="23.57" height="2.37"/><rect class="cls-3" x="124.33" y="391.63" width="23.57" height="2.37"/><rect class="cls-3" x="139.76" y="335.63" width="23.57" height="2.37"/><rect class="cls-9" x="158.4" y="335.63" width="2" height="2.37"/><rect class="cls-3" x="125.33" y="327.63" width="23.57" height="2.37"/><rect class="cls-3" x="106.81" y="351.63" width="23.57" height="2.37"/><rect class="cls-3" x="152.7" y="359.63" width="23.57" height="2.37"/><rect class="cls-3" x="97.41" y="359.63" width="23.57" height="2.37"/><rect class="cls-3" x="106.81" y="367.63" width="23.57" height="2.37"/><rect class="cls-3" x="125.33" y="343.63" width="23.57" height="2.37"/><rect class="cls-3" x="136.11" y="351.63" width="23.57" height="2.37"/><rect class="cls-6" x="237.33" y="397.63" width="228" height="12"/><rect x="241.91" y="391.4" width="14" height="1.8"/><path class="cls-8" d="M363.54,577.8" transform="translate(-60.75 -183.11)"/><rect x="301.91" y="391.4" width="14" height="1.8"/><rect x="341.91" y="391.4" width="14" height="1.8"/><rect x="321.91" y="391.4" width="14" height="1.8"/><rect x="361.91" y="391.4" width="14" height="1.8"/><rect x="381.91" y="391.4" width="14" height="1.8"/><rect x="400.91" y="391.4" width="14" height="1.8"/><rect x="421.91" y="391.4" width="14" height="1.8"/><rect x="441.91" y="391.4" width="14" height="1.8"/><rect x="238.08" y="386.4" width="14" height="1.8"/><rect x="298.08" y="386.4" width="14" height="1.8"/><rect x="338.08" y="386.4" width="14" height="1.8"/><rect x="318.08" y="386.4" width="14" height="1.8"/><rect x="358.08" y="386.4" width="14" height="1.8"/><rect x="378.08" y="386.4" width="14" height="1.8"/><rect x="397.08" y="386.4" width="14" height="1.8"/><rect x="418.08" y="386.4" width="14" height="1.8"/><rect x="438.08" y="386.4" width="14" height="1.8"/><rect x="234" y="381.89" width="14" height="1.8"/><rect x="254" y="381.89" width="14" height="1.8"/><rect x="334" y="381.89" width="14" height="1.8"/><rect x="314" y="381.89" width="14" height="1.8"/><rect x="354" y="381.89" width="14" height="1.8"/><rect x="374" y="381.89" width="14" height="1.8"/><rect x="393" y="381.89" width="14" height="1.8"/><rect x="414" y="381.89" width="14" height="1.8"/><rect x="434" y="381.89" width="14" height="1.8"/><rect x="250.08" y="377.38" width="14" height="1.8"/><rect x="330.08" y="377.38" width="14" height="1.8"/><rect x="310.08" y="377.38" width="14" height="1.8"/><rect x="350.08" y="377.38" width="14" height="1.8"/><rect x="370.08" y="377.38" width="14" height="1.8"/><rect x="389.08" y="377.38" width="14" height="1.8"/><rect x="410.08" y="377.38" width="14" height="1.8"/><rect x="430.08" y="377.38" width="14" height="1.8"/><rect x="246.91" y="372.88" width="14" height="1.8"/><rect x="306.91" y="372.88" width="14" height="1.8"/><rect x="346.91" y="372.88" width="14" height="1.8"/><rect x="326.91" y="372.88" width="14" height="1.8"/><rect x="366.91" y="372.88" width="14" height="1.8"/><rect x="386.91" y="372.88" width="14" height="1.8"/><rect x="405.91" y="372.88" width="14" height="1.8"/><rect x="426.91" y="372.88" width="14" height="1.8"/><rect x="446.91" y="372.88" width="14" height="1.8"/><rect x="241.91" y="368.55" width="14" height="1.8"/><rect x="301.91" y="368.55" width="14" height="1.8"/><rect x="341.91" y="368.55" width="14" height="1.8"/><rect x="321.91" y="368.55" width="14" height="1.8"/><rect x="361.91" y="368.55" width="14" height="1.8"/><rect x="381.91" y="368.55" width="14" height="1.8"/><rect x="400.91" y="368.55" width="14" height="1.8"/><rect x="421.91" y="368.55" width="14" height="1.8"/><rect x="441.91" y="368.55" width="14" height="1.8"/><rect x="261.91" y="368.55" width="14" height="1.8"/><rect x="281.91" y="368.55" width="14" height="1.8"/><rect x="266.91" y="372.88" width="14" height="1.8"/><rect x="286.91" y="372.88" width="14" height="1.8"/><rect x="270.08" y="377.38" width="14" height="1.8"/><rect x="290.08" y="377.38" width="14" height="1.8"/><rect x="274" y="381.89" width="14" height="1.8"/><rect x="294" y="381.89" width="14" height="1.8"/><rect x="258.08" y="386.4" width="14" height="1.8"/><rect x="261.91" y="391.4" width="14" height="1.8"/><rect x="278.08" y="386.4" width="14" height="1.8"/><rect x="281.91" y="391.4" width="14" height="1.8"/><rect class="cls-9" x="139.08" y="327.63" width="2" height="2.37"/><rect class="cls-9" x="158.4" y="359.63" width="2" height="2.37"/><rect class="cls-9" x="111.91" y="367.63" width="2" height="2.37"/><rect class="cls-9" x="119.81" y="351.63" width="2" height="2.37"/><rect class="cls-9" x="125.66" y="391.63" width="2" height="2.37"/><rect class="cls-9" x="142.34" y="375.63" width="2" height="2.37"/><line class="cls-10" x1="0.33" y1="136.08" x2="490.5" y2="136.08"/><line class="cls-10" y1="282.13" x2="490.17" y2="282.13"/><polygon class="cls-11" points="424.91 360.04 426.91 360.04 426.91 355.04 430.91 355.04 430.91 360.04 432.91 360.04 428.91 365.04 424.91 360.04"/><polygon class="cls-11" points="267.08 360.04 269.08 360.04 269.08 355.04 273.08 355.04 273.08 360.04 275.08 360.04 271.08 365.04 267.08 360.04"/><polygon class="cls-11" points="318.91 360.04 320.91 360.04 320.91 355.04 324.91 355.04 324.91 360.04 326.91 360.04 322.91 365.04 318.91 360.04"/><polygon class="cls-11" points="407.08 360.04 409.08 360.04 409.08 355.04 413.08 355.04 413.08 360.04 415.08 360.04 411.08 365.04 407.08 360.04"/><polygon class="cls-12" points="442.08 350.04 444.08 350.04 444.08 345.04 448.08 345.04 448.08 350.04 450.08 350.04 446.08 355.04 442.08 350.04"/><polygon class="cls-12" points="332.08 350.04 334.08 350.04 334.08 345.04 338.08 345.04 338.08 350.04 340.08 350.04 336.08 355.04 332.08 350.04"/><polygon class="cls-13" points="422.23 340.04 424.23 340.04 424.23 335.04 428.23 335.04 428.23 340.04 430.23 340.04 426.23 345.04 422.23 340.04"/><polygon class="cls-13" points="255.41 340.04 257.41 340.04 257.41 335.04 261.41 335.04 261.41 340.04 263.41 340.04 259.41 345.04 255.41 340.04"/><polygon class="cls-13" points="279.23 340.04 281.23 340.04 281.23 335.04 285.23 335.04 285.23 340.04 287.23 340.04 283.23 345.04 279.23 340.04"/><polygon class="cls-13" points="376.41 340.04 378.41 340.04 378.41 335.04 382.41 335.04 382.41 340.04 384.41 340.04 380.41 345.04 376.41 340.04"/><polygon class="cls-14" points="439.41 330.04 441.41 330.04 441.41 325.04 445.41 325.04 445.41 330.04 447.41 330.04 443.41 335.04 439.41 330.04"/><polygon class="cls-14" points="329.41 330.04 331.41 330.04 331.41 325.04 335.41 325.04 335.41 330.04 337.41 330.04 333.41 335.04 329.41 330.04"/><polygon class="cls-13" points="386.91 340.04 388.91 340.04 388.91 335.04 392.91 335.04 392.91 340.04 394.91 340.04 390.91 345.04 386.91 340.04"/><polygon class="cls-13" points="291.38 340.04 293.38 340.04 293.38 335.04 297.38 335.04 297.38 340.04 299.38 340.04 295.38 345.04 291.38 340.04"/><polygon class="cls-14" points="306.08 330.04 308.08 330.04 308.08 325.04 312.08 325.04 312.08 330.04 314.08 330.04 310.08 335.04 306.08 330.04"/><rect class="cls-9" x="321.91" y="368.55" width="2" height="1.8"/><rect class="cls-9" x="321.91" y="377.38" width="2" height="1.8"/><rect class="cls-9" x="321.91" y="381.89" width="2" height="1.8"/><rect class="cls-9" x="321.91" y="386.4" width="2" height="1.8"/><rect class="cls-9" x="321.91" y="391.4" width="2" height="1.8"/><rect class="cls-9" x="270.08" y="368.55" width="2" height="1.8"/><rect class="cls-9" x="270.08" y="372.88" width="2" height="1.8"/><rect class="cls-9" x="270.08" y="377.38" width="2" height="1.8"/><rect class="cls-9" x="270.08" y="386.4" width="2" height="1.8"/><rect class="cls-9" x="270.08" y="391.4" width="2" height="1.8"/><rect class="cls-9" x="410.08" y="368.55" width="2" height="1.8"/><rect class="cls-9" x="427.91" y="368.55" width="2" height="1.8"/><rect class="cls-9" x="427.91" y="372.88" width="2" height="1.8"/><rect class="cls-9" x="410.08" y="372.88" width="2" height="1.8"/><rect class="cls-9" x="410.08" y="377.38" width="2" height="1.8"/><rect class="cls-9" x="410.08" y="386.4" width="1" height="1.8"/><rect class="cls-9" x="410.08" y="391.4" width="2" height="1.8"/><rect class="cls-9" x="427.91" y="386.4" width="2" height="1.8"/><rect class="cls-9" x="427.91" y="391.4" width="2" height="1.8"/><line class="cls-15" x1="265.57" y1="258.38" x2="265.57" y2="190.36"/><line class="cls-15" x1="300.24" y1="258.63" x2="300.24" y2="190.61"/><line class="cls-15" x1="381.57" y1="258.36" x2="381.57" y2="190.33"/><line class="cls-15" x1="416.57" y1="258.36" x2="416.57" y2="190.33"/><text class="cls-4" transform="translate(18.89 118.86)">tagDB</text><text class="cls-4" transform="translate(19.56 401.09)">vcfDB</text><text class="cls-4" transform="translate(15.56 259.62)">mapDB</text><rect class="cls-16" x="261.14" y="39.78" width="44.01" height="12"/><rect class="cls-5" x="309.41" y="39.78" width="44.01" height="12"/><rect class="cls-17" x="406.24" y="39.78" width="44.01" height="12"/><rect class="cls-18" x="358.24" y="39.78" width="44.01" height="12"/><line class="cls-8" x1="303.47" y1="87.75" x2="342.33" y2="60.6"/><path class="cls-19" d="M72.32,234.93a8.22,8.22,0,0,1,8-8.43h32a8.23,8.23,0,0,1,8,8.43v47.15a8.22,8.22,0,0,1-8,8.42h-32a8.22,8.22,0,0,1-8-8.42Z" transform="translate(-60.75 -183.11)"/><rect class="cls-17" x="17.57" y="90.3" width="36" height="12"/><rect class="cls-16" x="17.57" y="48.3" width="36" height="12"/><rect class="cls-5" x="17.57" y="62.3" width="36" height="12"/><rect class="cls-18" x="17.57" y="76.3" width="36" height="12"/><text class="cls-20" transform="translate(25.34 57.68)">tag<tspan class="cls-21" x="13.9" y="0">A</tspan></text><text class="cls-20" transform="translate(25.28 71.69)">tagB</text><text class="cls-20" transform="translate(25 85.69)">tagC</text><text class="cls-20" transform="translate(25 99.69)">tagD</text><text class="cls-22" transform="translate(219.31 29.32) scale(0.93 1)">EpitopeID</text><text class="cls-23" transform="translate(0.33 10.32)">a</text><text class="cls-23" transform="translate(0.33 154.7)">b</text><text class="cls-23" transform="translate(0.33 295.76)">c</text><text class="cls-22" transform="translate(217.76 170.7) scale(0.93 1)">DeletionID</text><text class="cls-22" transform="translate(223.94 311.76) scale(0.93 1)">StrainID</text><path class="cls-2" d="M72.32,375.87a8.23,8.23,0,0,1,8-8.43h32a8.23,8.23,0,0,1,8,8.43V423a8.22,8.22,0,0,1-8,8.42h-32a8.22,8.22,0,0,1-8-8.42Z" transform="translate(-60.75 -183.11)"/><rect class="cls-7" x="17.57" y="189.47" width="36" height="12"/><rect class="cls-7" x="17.57" y="203.48" width="36" height="12"/><rect class="cls-7" x="17.57" y="217.5" width="36" height="12"/><rect class="cls-7" x="17.57" y="231.51" width="36" height="12"/><text class="cls-24" transform="translate(21.89 198.36)">gene<tspan class="cls-21" x="22.25" y="0">A</tspan></text><text class="cls-24" transform="translate(21.28 212.37)">geneB</text><text class="cls-24" transform="translate(20.73 226.38)">geneC</text><text class="cls-24" transform="translate(20.73 240.4)">geneD</text><path class="cls-2" d="M72.32,517.16a8.22,8.22,0,0,1,8-8.43h32a8.23,8.23,0,0,1,8,8.43v47.15a8.22,8.22,0,0,1-8,8.42h-32a8.22,8.22,0,0,1-8-8.42Z" transform="translate(-60.75 -183.11)"/><rect class="cls-9" x="17.57" y="372.63" width="36" height="12"/><rect class="cls-14" x="17.57" y="330.63" width="36" height="12"/><rect class="cls-13" x="17.57" y="344.63" width="36" height="12"/><rect class="cls-12" x="17.57" y="358.63" width="36" height="12"/><text class="cls-24" transform="translate(20.78 340.24)">strain<tspan class="cls-21" x="24.45" y="0">A</tspan></text><text class="cls-24" transform="translate(20.17 354.25)">strainB</text><text class="cls-24" transform="translate(19.62 368.26)">strainC</text><text class="cls-24" transform="translate(19.62 382.28)">strainD</text><text class="cls-24" transform="translate(268.34 254.82)">gene<tspan class="cls-21" x="22.25" y="0">A</tspan></text><text class="cls-24" transform="translate(384.28 254.82)">geneB</text><text class="cls-24" transform="translate(268.67 100.49)">gene<tspan class="cls-21" x="22.25" y="0">A</tspan></text><text class="cls-24" transform="translate(384.61 100.49)">geneB</text><text class="cls-20" transform="translate(272.92 48.67)">tag<tspan class="cls-21" x="13.9" y="0">A</tspan></text><text class="cls-20" transform="translate(321.13 48.67)">tagB</text><text class="cls-20" transform="translate(369.68 48.67)">tagC</text><text class="cls-20" transform="translate(417.68 48.67)">tagD</text></svg>