<svg width="125" height="104" viewBox="0 0 125 104" fill="none" xmlns="http://www.w3.org/2000/svg">
<path d="M125 39.47H0V63.91H125V39.47Z" fill="#30518E"/>
<path d="M125 0H0V24.44H125V0Z" fill="#30518E"/>
<path d="M125 78.95H0V103.39H125V78.95Z" fill="#30518E"/>
<path d="M22.5563 0H16.9172V24.4361H22.5563V0Z" fill="#F88319"/>
<path d="M14.0976 39.4737H8.4585V63.9098H14.0976V39.4737Z" fill="#FFA300"/>
<path d="M60.1503 78.9474H54.5112V103.383H60.1503V78.9474Z" fill="#FEC619"/>
<path d="M37.5939 0H31.9548V24.4361H37.5939V0Z" fill="#F88319"/>
<path d="M57.331 39.4737H51.6919V63.9098H57.331V39.4737Z" fill="#FFA300"/>
<path d="M73.3083 78.9474H67.6692V103.383H73.3083V78.9474Z" fill="#FEC619"/>
<path d="M102.444 0H96.8047V24.4361H102.444V0Z" fill="#F88319"/>
<path d="M88.3459 39.4737H82.7068V63.9098H88.3459V39.4737Z" fill="#FFA300"/>
<path d="M102.444 78.9474H96.8047V103.383H102.444V78.9474Z" fill="#FEC619"/>
</svg>
