<svg width="125" height="104" viewBox="0 0 125 104" fill="none" xmlns="http://www.w3.org/2000/svg">
<path d="M16.9173 0H0V24.4361H16.9173V0Z" fill="#30518E"/>
<path d="M37.594 39.4737H0V63.9098H37.594V39.4737Z" fill="#30518E"/>
<path d="M37.594 78.9474H0V103.383H37.594V78.9474Z" fill="#30518E"/>
<path d="M31.9549 0H22.5564V24.4361H31.9549V0Z" fill="#30518E"/>
<path d="M31.9549 39.4737H22.5564V63.9098H31.9549V39.4737Z" fill="#30518E"/>
<path d="M31.9549 78.9474H22.5564V103.383H31.9549V78.9474Z" fill="#30518E"/>
<path d="M96.8045 0H37.594V24.4361H96.8045V0Z" fill="#30518E"/>
<path d="M102.444 39.4737H37.594V63.9098H102.444V39.4737Z" fill="#30518E"/>
<path d="M96.8045 78.9474H37.594V103.383H96.8045V78.9474Z" fill="#30518E"/>
<path d="M125 0H102.444V24.4361H125V0Z" fill="#30518E"/>
<path d="M125 39.4737H102.444V63.9098H125V39.4737Z" fill="#30518E"/>
<path d="M125 78.9474H102.444V103.383H125V78.9474Z" fill="#30518E"/>
<path d="M22.5563 0H16.9172V24.4361H22.5563V0Z" fill="#F4B919"/>
<path d="M14.0977 39.4737H8.45862V63.9098H14.0977V39.4737Z" fill="#F4B919"/>
<path d="M60.1503 78.9474H54.5112V103.383H60.1503V78.9474Z" fill="#F4B919"/>
<path d="M37.5939 0H31.9548V24.4361H37.5939V0Z" fill="#F4B919"/>
<path d="M57.3309 39.4737H51.6918V63.9098H57.3309V39.4737Z" fill="#F4B919"/>
<path d="M73.3083 78.9474H67.6692V103.383H73.3083V78.9474Z" fill="#F4B919"/>
<path d="M102.444 0H96.8046V24.4361H102.444V0Z" fill="#F4B919"/>
<path d="M88.3459 39.4737H82.7068V63.9098H88.3459V39.4737Z" fill="#F4B919"/>
<path d="M102.444 78.9474H96.8046V103.383H102.444V78.9474Z" fill="#F4B919"/>
</svg>
